<svg width="194" height="193" viewBox="0 0 194 193" fill="none" xmlns="http://www.w3.org/2000/svg">
<path d="M80.2219 183.939L82.4248 183.687L81.3235 181.618L82.6697 181.013L83.6614 183.005L85.2006 181.399L86.3061 182.376L84.6423 184.004L86.6677 184.919L86.0982 186.269L84.0027 185.283L83.713 187.585L82.2894 187.369L82.678 185.081L80.3642 185.397L80.2219 183.939ZM83.6593 184.482L83.7805 184.217L83.523 183.915L83.1873 184.127L83.2243 184.416L83.6593 184.482Z" fill="black"/>
<path d="M62.9888 168.299L57.5529 165.575L58.2696 164.145L65.2433 167.639L58.8823 180.334L52.0696 176.921L52.7863 175.49L58.0613 178.133L60.1577 173.949L55.6695 171.7L56.3773 170.288L60.8655 172.536L62.9888 168.299Z" fill="black"/>
<path d="M43.6121 153.567L45.1937 154.823L44.7052 161.869L51.4575 159.8L53.0391 161.056L44.5799 163.634L44.0022 172.013L42.4206 170.756L42.8763 164.17L36.564 166.103L34.9824 164.847L42.9983 162.377L43.6121 153.567Z" fill="black"/>
<path d="M25.3491 154.44C23.425 152.06 23.761 149.422 25.8605 147.725C27.9755 146.014 30.6254 146.238 32.5495 148.617L34.373 150.872L38.2142 147.766L39.2957 149.103L28.2541 158.032L25.3491 154.44ZM31.3779 149.745C30.1203 148.189 28.5223 147.835 26.9672 149.093C25.412 150.351 25.4237 151.987 26.6813 153.542L28.4167 155.689L33.1133 151.891L31.3779 149.745Z" fill="black"/>
<path d="M27.3064 134.961L24.4377 129.442L25.8573 128.704L29.5194 135.75L16.9198 142.299L16.1266 140.773L27.3064 134.961Z" fill="black"/>
<path d="M21.6447 115.825C22.5898 119.567 20.5621 123.545 16.3349 124.612C12.1076 125.68 8.43433 123.142 7.48913 119.4C6.54883 115.677 8.57656 111.699 12.8038 110.631C17.0311 109.564 20.7044 112.102 21.6447 115.825ZM20.0352 116.231C19.3349 113.458 16.5701 111.496 13.2348 112.338C9.89953 113.18 8.39827 116.22 9.0986 118.993C9.80382 121.786 12.5686 123.748 15.9039 122.906C19.2392 122.064 20.7404 119.024 20.0352 116.231Z" fill="black"/>
<path d="M19.0022 91.6956L19.0076 93.5756L13.9771 96.9101L13.9776 97.0701L13.9858 99.93L19.0258 99.9156L19.0307 101.636L4.83077 101.676L4.81762 97.0964C4.80901 94.0964 6.72371 92.2509 9.4237 92.2431C11.5437 92.237 13.1069 93.3525 13.7124 95.2508L19.0022 91.6956ZM6.42583 99.9518L12.4658 99.9344L12.4582 97.2744C12.4524 95.2744 11.4287 93.9974 9.42876 94.0031C7.42877 94.0088 6.41244 95.2918 6.41819 97.2918L6.42583 99.9518Z" fill="black"/>
<path d="M18.5467 83.1015L19.7412 77.1399L21.31 77.4543L19.7775 85.1023L5.8543 82.3124L7.35139 74.8409L8.92021 75.1553L7.76104 80.9403L12.3498 81.8598L13.3361 76.9376L14.8853 77.248L13.899 82.1702L18.5467 83.1015Z" fill="black"/>
<path d="M26.7559 61.9276L14.7354 54.368L15.7575 52.7427L28.8268 54.4646L21.6242 43.4141L22.6464 41.7888L34.6669 49.3484L33.7512 50.8044L24.6258 45.0655L24.5725 45.1501L31.0574 55.0877L30.3654 56.1882L18.5994 54.648L18.5462 54.7327L27.6716 60.4716L26.7559 61.9276Z" fill="black"/>
<path d="M44.9175 39.0126C42.0341 41.5789 37.5696 41.6166 34.6709 38.3597C31.7722 35.1028 32.3275 30.6728 35.2109 28.1066C38.0793 25.5536 42.5439 25.5159 45.4425 28.7728C48.3412 32.0297 47.7859 36.4597 44.9175 39.0126ZM43.8139 37.7726C45.9503 35.8712 46.4149 32.5126 44.1278 29.9429C41.8408 27.3733 38.4509 27.4452 36.3145 29.3466C34.1632 31.2613 33.6986 34.62 35.9856 37.1896C38.2727 39.7593 41.6625 39.6874 43.8139 37.7726Z" fill="black"/>
<path d="M65.1011 25.5288L63.4359 26.4015L58.1557 23.4787L58.0139 23.553L55.4808 24.8807L57.8205 29.3447L56.297 30.1432L49.7051 17.566L53.7617 15.4398C56.4188 14.0471 58.9398 14.8935 60.1932 17.285C61.1774 19.1627 60.9096 21.0644 59.5053 22.4778L65.1011 25.5288ZM51.9713 18.1846L54.7752 23.5344L57.1312 22.2995C58.9026 21.3711 59.5628 19.8735 58.6344 18.102C57.7059 16.3306 56.0987 16.0214 54.3273 16.9498L51.9713 18.1846Z" fill="black"/>
<path d="M72.5143 21.1567L78.354 19.464L78.7994 21.0007L71.3078 23.1723L67.3545 9.53366L74.6732 7.41223L75.1186 8.94897L69.4519 10.5916L70.7548 15.0865L75.5764 13.6889L76.0162 15.2065L71.1947 16.6041L72.5143 21.1567Z" fill="black"/>
<path d="M91.2338 7.89213L89.1578 8.67052L90.7281 10.4107L89.5687 11.3237L88.1235 9.6319L87.02 11.5641L85.7104 10.884L86.9295 8.90078L84.7427 8.50439L84.9677 7.05686L87.2399 7.50548L86.9623 5.20136L88.3959 5.06614L88.574 7.37964L90.7421 6.51221L91.2338 7.89213ZM87.7673 8.19901L87.714 8.48528L88.0371 8.71596L88.3113 8.42894L88.2054 8.15769L87.7673 8.19901Z" fill="black"/>
<path d="M107.913 8.45892L105.728 8.8354L106.945 10.8386L105.636 11.5186L104.532 9.58642L103.087 11.2782L101.928 10.3653L103.496 8.64496L101.422 7.84666L101.914 6.46674L104.062 7.33229L104.22 5.01691L105.654 5.15213L105.396 7.45812L107.688 7.01139L107.913 8.45892ZM104.45 8.11222L104.344 8.38347L104.619 8.67049L104.942 8.43981L104.888 8.15353L104.45 8.11222Z" fill="black"/>
<path d="M126.008 23.0922L131.591 25.5019L130.956 26.9709L123.795 23.8794L129.423 10.8424L136.419 13.8624L135.785 15.3314L130.368 12.993L128.513 17.2898L133.122 19.2794L132.496 20.73L127.887 18.7404L126.008 23.0922Z" fill="black"/>
<path d="M146.192 36.6967L144.541 35.5322L144.628 28.4707L138.005 30.9204L136.354 29.7559L144.653 26.7013L144.753 18.3028L146.403 19.4673L146.323 26.0684L152.515 23.7794L154.166 24.9439L146.303 27.8658L146.192 36.6967Z" fill="black"/>
<path d="M164.375 34.7864C166.432 37.0524 166.247 39.7053 164.247 41.5198C162.233 43.3477 159.575 43.2754 157.518 41.0094L155.569 38.8618L151.911 42.1816L150.755 40.9079L161.271 31.3652L164.375 34.7864ZM158.624 39.817C159.968 41.2981 161.583 41.5605 163.064 40.2164C164.545 38.8724 164.441 37.239 163.097 35.758L161.242 33.7141L156.769 37.7732L158.624 39.817Z" fill="black"/>
<path d="M163.531 54.3447L166.709 59.6914L165.334 60.5089L161.276 53.6837L173.483 46.4279L174.362 47.9064L163.531 54.3447Z" fill="black"/>
<path d="M170.272 73.1275C169.116 69.4449 170.914 65.3583 175.073 64.0517C179.233 62.7452 183.045 65.0698 184.201 68.7524C185.352 72.4159 183.554 76.5025 179.394 77.8091C175.235 79.1156 171.423 76.791 170.272 73.1275ZM171.856 72.63C172.713 75.3586 175.585 77.1608 178.867 76.1299C182.149 75.0991 183.475 71.9784 182.618 69.2498C181.755 66.5022 178.883 64.7 175.601 65.7308C172.319 66.7617 170.993 69.8824 171.856 72.63Z" fill="black"/>
<path d="M174.284 97.0672L174.171 95.1905L179.004 91.5751L178.994 91.4154L178.823 88.5605L173.792 88.8619L173.69 87.1449L187.864 86.2959L188.138 90.8677C188.317 93.8624 186.511 95.8139 183.816 95.9753C181.699 96.1021 180.075 95.0773 179.363 93.2166L174.284 97.0672ZM186.37 88.1085L180.341 88.4696L180.5 91.1249C180.619 93.1213 181.714 94.338 183.71 94.2185C185.707 94.0989 186.648 92.7602 186.529 90.7638L186.37 88.1085Z" fill="black"/>
<path d="M175.228 105.622L174.375 111.642L172.791 111.417L173.886 103.694L187.945 105.687L186.876 113.232L185.292 113.007L186.12 107.166L181.486 106.509L180.781 111.479L179.217 111.257L179.922 106.287L175.228 105.622Z" fill="black"/>
<path d="M168.237 127.228L180.668 134.091L179.74 135.772L166.594 134.797L174.414 145.419L173.486 147.1L161.055 140.237L161.886 138.731L171.323 143.941L171.372 143.854L164.331 134.302L164.96 133.163L176.794 134.031L176.843 133.944L167.405 128.734L168.237 127.228Z" fill="black"/>
<path d="M151.41 151.14C154.142 148.413 158.598 148.122 161.677 151.208C164.756 154.295 164.454 158.749 161.721 161.475C159.003 164.188 154.548 164.479 151.468 161.393C148.389 158.306 148.691 153.852 151.41 151.14ZM152.582 152.315C150.558 154.335 150.285 157.714 152.714 160.15C155.144 162.585 158.524 162.32 160.549 160.3C162.588 158.266 162.861 154.886 160.431 152.451C158.001 150.016 154.621 150.281 152.582 152.315Z" fill="black"/>
<path d="M132.027 165.751L133.64 164.785L139.078 167.402L139.215 167.32L141.668 165.851L139.078 161.527L140.554 160.643L147.851 172.825L143.922 175.178C141.349 176.72 138.783 176.018 137.396 173.702C136.307 171.883 136.466 169.97 137.787 168.479L132.027 165.751ZM145.553 172.336L142.45 167.154L140.168 168.521C138.452 169.549 137.878 171.082 138.906 172.798C139.934 174.513 141.556 174.731 143.272 173.703L145.553 172.336Z" fill="black"/>
<path d="M124.874 170.538L119.14 172.56L118.608 171.051L125.964 168.457L130.687 181.848L123.501 184.383L122.969 182.874L128.533 180.911L126.976 176.498L122.242 178.168L121.716 176.678L126.451 175.008L124.874 170.538Z" fill="black"/>
<path d="M106.94 184.846L108.969 183.951L107.302 182.303L108.407 181.326L109.946 182.932L110.938 180.941L112.284 181.545L111.18 183.594L113.386 183.866L113.244 185.324L110.95 185.005L111.358 187.29L109.934 187.506L109.625 185.207L107.51 186.196L106.94 184.846ZM110.384 184.343L110.421 184.054L110.085 183.842L109.827 184.144L109.949 184.409L110.384 184.343Z" fill="black"/>
</svg>
